<svg id="Layer_1" data-name="Layer 1" xmlns="http://www.w3.org/2000/svg" viewBox="0 0 822.99 215.84"><defs><style>.cls-1,.cls-2{fill:none;}.cls-1,.cls-12{stroke:#0067b8;}.cls-1,.cls-10,.cls-11,.cls-12,.cls-2,.cls-3,.cls-4,.cls-5,.cls-6,.cls-7,.cls-8,.cls-9{stroke-miterlimit:10;}.cls-1{stroke-width:9px;}.cls-2{stroke:#fff;stroke-width:10px;}.cls-3,.cls-9{fill:#f35325;}.cls-3,.cls-7,.cls-9{stroke:#f35325;}.cls-3,.cls-4,.cls-5,.cls-6,.cls-7{stroke-width:3px;}.cls-4,.cls-5,.cls-6,.cls-7{fill:#000333;}.cls-10,.cls-4{stroke:#81bc06;}.cls-5,.cls-8{stroke:#05a6f0;}.cls-11,.cls-6{stroke:#ffba08;}.cls-12,.cls-8{fill:#05a6f0;}.cls-10{fill:#81bc06;}.cls-11{fill:#ffba08;}.cls-12{stroke-width:2px;}</style></defs><title>cd-logo-light</title><path class="cls-1" d="M23.84,112.41a103.43,103.43,0,0,1,205.86,0c.33,3.34.5,6.73.5,10.15s-.17,6.81-.5,10.15a103.43,103.43,0,0,1-205.86,0H43.06a84.32,84.32,0,0,0,167.42,0H189.71A63.74,63.74,0,0,1,63,122.56c0-2.11.1-4.2.3-6.25q.2-2,.51-3.9a63.75,63.75,0,0,1,125.87,0h20.77a84.34,84.34,0,0,0-83.71-74.17V58.82" transform="translate(-18.88 -14.64)"/><line class="cls-1" x1="107.9" y1="43.97" x2="107.9" y2="152.55"/><line class="cls-2" x1="228.18" y1="93.89" x2="288.86" y2="93.89"/><line class="cls-2" x1="196.95" y1="29.55" x2="288.86" y2="29.55"/><line class="cls-2" x1="522.98" y1="28.1" x2="621.44" y2="28.1"/><line class="cls-2" x1="211.31" y1="159.86" x2="288.86" y2="159.86"/><line class="cls-2" x1="301.96" y1="24.41" x2="301.96" y2="164.76"/><line class="cls-2" x1="408.4" y1="160.08" x2="464.51" y2="160.08"/><line class="cls-2" x1="408.4" y1="92.99" x2="464.51" y2="92.99"/><line class="cls-2" x1="408.4" y1="28.78" x2="464.51" y2="28.78"/><line class="cls-2" x1="392.89" y1="24.41" x2="392.89" y2="164.76"/><line class="cls-2" x1="652.47" y1="161.28" x2="708.58" y2="161.28"/><line class="cls-2" x1="652.47" y1="93.23" x2="708.58" y2="93.23"/><line class="cls-2" x1="652.47" y1="28.1" x2="708.58" y2="28.1"/><line class="cls-2" x1="636.96" y1="23.67" x2="636.96" y2="166.03"/><line class="cls-2" x1="480.19" y1="23.67" x2="480.19" y2="164.76"/><line class="cls-2" x1="726.59" y1="23.67" x2="726.59" y2="165.17"/><line class="cls-2" x1="490.33" y1="26.64" x2="625.52" y2="161.83"/><path class="cls-2" d="M759.6,213.08c42.68,0,77.27-38.11,77.27-85.12S802.28,42.83,759.6,42.83" transform="translate(-18.88 -14.64)"/><line class="cls-2" x1="310.86" y1="28.52" x2="356.85" y2="74.5"/><line class="cls-2" x1="384.14" y1="29.11" x2="353.63" y2="59.62"/><path class="cls-3" d="M55.41,113.59l-16.33-2.3.53-3.75,1.13.16-.33,2.35,14.07,2,.33-2.36,1.13.16Z" transform="translate(-18.88 -14.64)"/><path class="cls-4" d="M48.43,102.94c.4-1.42-.32-1.83-1-2a14.07,14.07,0,0,0-1.72-.31,10.8,10.8,0,0,1-1.7-.3c-1.83-.51-2.28-1.93-1.8-3.62l.12-.42,1.09.31-.1.36c-.33,1.17.2,1.75,1.27,2a9.67,9.67,0,0,0,1.46.26,9.74,9.74,0,0,1,1.55.28c1.28.34,1.77,1.07,1.75,2h.05a2,2,0,0,1,2.57-.83,8.48,8.48,0,0,1,1.47.57,11.5,11.5,0,0,0,1.4.54c1.12.31,1.86,0,2.18-1.09l.09-.36,1.1.3-.12.42c-.46,1.66-1.52,2.69-3.53,2.13a11.38,11.38,0,0,1-1.59-.62,12.11,12.11,0,0,0-1.57-.61c-.62-.17-1.54-.21-1.93,1.2Z" transform="translate(-18.88 -14.64)"/><path class="cls-5" d="M46.38,85.18a13.61,13.61,0,0,0,6.74,5.74,13.94,13.94,0,0,0,8.75.93l-.57,1.31a13.37,13.37,0,0,1-8.78-.83,13.64,13.64,0,0,1-6.71-5.84Z" transform="translate(-18.88 -14.64)"/><path class="cls-6" d="M57,82.53,58.1,71.79l1.19.79-1,9,0,0,7.84-4.54,1.19.79-9.4,5.31Z" transform="translate(-18.88 -14.64)"/><path class="cls-6" d="M71.18,74.47,64.34,59.92l1-1,6.83,14.56Z" transform="translate(-18.88 -14.64)"/><path class="cls-6" d="M84.24,55.65l-4.9,9.62-.84-1.16,4.24-8.06,0,0-9,1.48-.84-1.16,10.67-1.62Z" transform="translate(-18.88 -14.64)"/><path class="cls-5" d="M93.1,59.21a14,14,0,0,0-1.35-8.76,13.7,13.7,0,0,0-6-6.42L87,43.41a13.17,13.17,0,0,1,6.12,6.4,13.47,13.47,0,0,1,1.25,8.78Z" transform="translate(-18.88 -14.64)"/><path class="cls-4" d="M103.91,46.27c-1.39.46-1.31,1.38-1.11,2a12.42,12.42,0,0,0,.68,1.54,10.75,10.75,0,0,1,.69,1.56c.66,2-.35,3.1-2,3.63l-.41.14L101.44,54l.34-.11a1.54,1.54,0,0,0,1-2.23,13.69,13.69,0,0,0-.61-1.37,10.08,10.08,0,0,1-.65-1.44,2,2,0,0,1,.71-2.61v0a2,2,0,0,1-2.12-1.65A9.75,9.75,0,0,1,99.78,43a13.13,13.13,0,0,0-.33-1.44c-.35-1.06-1-1.53-2.11-1.17l-.35.11-.36-1.08.4-.13c1.67-.55,3.12-.18,3.71,1.63a13.65,13.65,0,0,1,.39,1.68,12,12,0,0,0,.38,1.7c.23.69.68,1.39,2.07.93Z" transform="translate(-18.88 -14.64)"/><path class="cls-7" d="M111.47,35.53l3,16.23-3.72.7-.21-1.12,2.34-.44-2.63-14-2.34.44-.21-1.12Z" transform="translate(-18.88 -14.64)"/><circle class="cls-8" cx="126.43" cy="119.52" r="10"/><circle class="cls-9" cx="126.43" cy="96.32" r="10"/><circle class="cls-10" cx="150.46" cy="96.32" r="10"/><circle class="cls-11" cx="150.46" cy="119.52" r="10"/><path class="cls-12" d="M222.46,194.48a27.1,27.1,0,0,1,5-.48c3.39,0,5.79,1,7.39,2.89s2.57,4.58,2.57,8.33-.92,6.89-2.62,9-4.52,3.34-8.07,3.34a30.35,30.35,0,0,1-4.27-.27ZM224.81,215a11.6,11.6,0,0,0,2.38.17c5,0,7.77-3.58,7.77-9.84,0-5.48-2.41-9-7.39-9a10.31,10.31,0,0,0-2.76.31Z" transform="translate(-18.88 -14.64)"/><path class="cls-12" d="M248.57,194.17v23.21h-2.36V194.17Z" transform="translate(-18.88 -14.64)"/><path class="cls-12" d="M272.29,216.34a13.83,13.83,0,0,1-5.6,1.28,8.26,8.26,0,0,1-6.81-3.07,13.86,13.86,0,0,1-2.55-8.64c0-6.92,3.76-12,9.88-12a9.21,9.21,0,0,1,4.54,1.07l-.57,2.44a7.75,7.75,0,0,0-4-1c-4.43,0-7.33,3.51-7.33,9.32s2.79,9.37,7,9.37a6.24,6.24,0,0,0,3.13-.62V207.6h-3.7v-2.41h6Z" transform="translate(-18.88 -14.64)"/><path class="cls-12" d="M284,194.17v23.21h-2.35V194.17Z" transform="translate(-18.88 -14.64)"/><path class="cls-12" d="M296.18,196.72h-5.54v-2.55h13.5v2.55h-5.58v20.66h-2.38Z" transform="translate(-18.88 -14.64)"/><path class="cls-12" d="M314.85,210.08l-1.89,7.3h-2.44l6.2-23.21h2.84l6.22,23.21h-2.51l-1.95-7.3Zm6-2.34L319,201.06c-.4-1.52-.67-2.89-.94-4.24H318c-.27,1.38-.56,2.79-.92,4.2l-1.78,6.72Z" transform="translate(-18.88 -14.64)"/><path class="cls-12" d="M334.2,194.17h2.35v20.69h7.79v2.52H334.2Z" transform="translate(-18.88 -14.64)"/><path class="cls-12" d="M358.44,194.48a27,27,0,0,1,5-.48c3.38,0,5.79,1,7.39,2.89s2.57,4.58,2.57,8.33-.92,6.89-2.63,9-4.52,3.34-8.06,3.34a30.25,30.25,0,0,1-4.27-.27ZM360.79,215a11.6,11.6,0,0,0,2.38.17c5,0,7.77-3.58,7.77-9.84,0-5.48-2.41-9-7.39-9a10.25,10.25,0,0,0-2.76.31Z" transform="translate(-18.88 -14.64)"/><path class="cls-12" d="M391.63,206.5h-7.09v8.36h7.9v2.52H382.19V194.17H392v2.52h-7.5V204h7.09Z" transform="translate(-18.88 -14.64)"/><path class="cls-12" d="M404.27,217.38l-5.95-23.21h2.54l2.84,11.43c.78,3.13,1.46,6,1.95,8.68h.05c.51-2.69,1.27-5.61,2.08-8.64l3.09-11.47h2.51l-6.52,23.21Z" transform="translate(-18.88 -14.64)"/><path class="cls-12" d="M430.54,206.5h-7.09v8.36h7.9v2.52H421.1V194.17h9.84v2.52h-7.49V204h7.09Z" transform="translate(-18.88 -14.64)"/><path class="cls-12" d="M440.14,194.17h2.36v20.69h7.79v2.52H440.14Z" transform="translate(-18.88 -14.64)"/><path class="cls-12" d="M474.23,205.53c0,8-3.81,12.22-8.47,12.22S457.57,213,457.57,206c0-7.37,3.59-12.19,8.46-12.19S474.23,198.65,474.23,205.53Zm-14.15.38c0,5,2.11,9.4,5.82,9.4s5.84-4.37,5.84-9.64c0-4.61-1.89-9.43-5.81-9.43S460.08,200.82,460.08,205.91Z" transform="translate(-18.88 -14.64)"/><path class="cls-12" d="M483,194.45a21.71,21.71,0,0,1,4.52-.45,6.49,6.49,0,0,1,5.12,1.93,7.13,7.13,0,0,1,1.59,4.85,8,8,0,0,1-1.41,5,6.69,6.69,0,0,1-5.57,2.55,6.47,6.47,0,0,1-1.89-.21v9.3H483Zm2.36,11.19a6.32,6.32,0,0,0,1.95.24c2.84,0,4.57-1.76,4.57-5s-1.71-4.54-4.3-4.54a7.74,7.74,0,0,0-2.22.24Z" transform="translate(-18.88 -14.64)"/><path class="cls-12" d="M518.52,207.19c-.14-3.24-.3-7.13-.27-10h-.08c-.62,2.72-1.38,5.61-2.3,8.81l-3.22,11.26h-1.79l-2.95-11.05c-.86-3.27-1.59-6.27-2.11-9h-.05c-.05,2.89-.19,6.78-.35,10.26l-.49,9.95h-2.24l1.27-23.21h3l3.11,11.23c.76,2.85,1.38,5.4,1.84,7.81H512c.46-2.34,1.11-4.89,1.92-7.81l3.25-11.23h3l1.14,23.21H519Z" transform="translate(-18.88 -14.64)"/><path class="cls-12" d="M540.08,206.5H533v8.36h7.89v2.52H530.64V194.17h9.85v2.52H533V204h7.08Z" transform="translate(-18.88 -14.64)"/><path class="cls-12" d="M549.69,217.38V194.17h2.57l5.84,11.74a72.46,72.46,0,0,1,3.27,7.54l.06,0c-.22-3.1-.27-5.92-.27-9.54v-9.71h2.22v23.21H561l-5.79-11.78a79.19,79.19,0,0,1-3.41-7.74l-.08,0c.13,2.93.19,5.72.19,9.57v9.92Z" transform="translate(-18.88 -14.64)"/><path class="cls-12" d="M575.58,196.72H570v-2.55h13.5v2.55H578v20.66h-2.38Z" transform="translate(-18.88 -14.64)"/><path class="cls-12" d="M605.12,194.17v13.74c0,5.2,1.82,7.4,4.25,7.4,2.71,0,4.44-2.27,4.44-7.4V194.17h2.38V207.7c0,7.13-3,10.05-6.9,10.05-3.73,0-6.55-2.72-6.55-9.91V194.17Z" transform="translate(-18.88 -14.64)"/><path class="cls-12" d="M626,217.38V194.17h2.57l5.84,11.74a72.66,72.66,0,0,1,3.28,7.54l0,0c-.22-3.1-.27-5.92-.27-9.54v-9.71h2.22v23.21h-2.38l-5.79-11.78a81.67,81.67,0,0,1-3.41-7.74l-.08,0c.13,2.93.19,5.72.19,9.57v9.92Z" transform="translate(-18.88 -14.64)"/><path class="cls-12" d="M651.9,194.17v23.21h-2.35V194.17Z" transform="translate(-18.88 -14.64)"/><path class="cls-12" d="M664.78,217.38l-5.95-23.21h2.54l2.84,11.43c.79,3.13,1.46,6,1.95,8.68h.05c.52-2.69,1.27-5.61,2.09-8.64l3.08-11.47h2.52l-6.52,23.21Z" transform="translate(-18.88 -14.64)"/><path class="cls-12" d="M691.05,206.5H684v8.36h7.9v2.52H681.61V194.17h9.84v2.52H684V204h7.09Z" transform="translate(-18.88 -14.64)"/><path class="cls-12" d="M700.65,194.48a19.46,19.46,0,0,1,4.52-.48c2.52,0,4.14.59,5.28,1.89a6.65,6.65,0,0,1,1.43,4.41c0,3.06-1.51,5.1-3.43,5.92v.11c1.4.61,2.24,2.27,2.67,4.68a45.7,45.7,0,0,0,1.41,6.37H710.1a36,36,0,0,1-1.22-5.55c-.54-3.2-1.52-4.4-3.65-4.51H703v10.06h-2.36ZM703,205.05h2.41c2.51,0,4.11-1.75,4.11-4.41,0-3-1.71-4.3-4.2-4.33a8,8,0,0,0-2.32.27Z" transform="translate(-18.88 -14.64)"/><path class="cls-12" d="M720.62,213.73a7.11,7.11,0,0,0,4.22,1.51,3.63,3.63,0,0,0,3.82-4c0-2.17-1-3.41-3.44-4.61-3-1.34-4.82-3.31-4.82-6.58,0-3.61,2.36-6.3,5.9-6.3a6.91,6.91,0,0,1,4,1.14l-.65,2.45a6,6,0,0,0-3.46-1.11,3.29,3.29,0,0,0-3.44,3.48c0,2.17,1.11,3.24,3.63,4.47,3.08,1.52,4.65,3.41,4.65,6.82,0,3.58-2.08,6.68-6.38,6.68a7.85,7.85,0,0,1-4.65-1.48Z" transform="translate(-18.88 -14.64)"/><path class="cls-12" d="M749.46,206.5h-7.09v8.36h7.9v2.52H740V194.17h9.85v2.52h-7.5V204h7.09Z" transform="translate(-18.88 -14.64)"/></svg>