<svg id="Layer_1" data-name="Layer 1" xmlns="http://www.w3.org/2000/svg" viewBox="0 0 215.81 215.84"><defs><style>.cls-1{fill:none;stroke:#0067b8;stroke-width:9px;}.cls-1,.cls-10,.cls-2,.cls-3,.cls-4,.cls-5,.cls-6,.cls-7,.cls-8,.cls-9{stroke-miterlimit:10;}.cls-2,.cls-8{fill:#f35325;}.cls-2,.cls-6,.cls-8{stroke:#f35325;}.cls-2,.cls-3,.cls-4,.cls-5,.cls-6{stroke-width:3px;}.cls-3,.cls-4,.cls-5,.cls-6{fill:#000333;}.cls-3,.cls-9{stroke:#81bc06;}.cls-4,.cls-7{stroke:#05a6f0;}.cls-10,.cls-5{stroke:#ffba08;}.cls-7{fill:#05a6f0;}.cls-9{fill:#81bc06;}.cls-10{fill:#ffba08;}</style></defs><title>cd-logo-circle</title><path class="cls-1" d="M23.36,115.85a103.43,103.43,0,0,1,205.86,0c.33,3.34.5,6.73.5,10.15s-.17,6.81-.5,10.15a103.43,103.43,0,0,1-205.86,0H42.58a84.32,84.32,0,0,0,167.42,0H189.23A63.74,63.74,0,0,1,62.55,126q0-3.16.3-6.26c.13-1.3.3-2.6.51-3.89a63.75,63.75,0,0,1,125.87,0H210a84.34,84.34,0,0,0-83.71-74.17V62.26" transform="translate(-18.4 -18.08)"/><line class="cls-1" x1="107.9" y1="43.97" x2="107.9" y2="152.55"/><path class="cls-2" d="M54.93,117l-16.33-2.3.53-3.75,1.13.16-.33,2.35,14.07,2,.33-2.36,1.13.16Z" transform="translate(-18.4 -18.08)"/><path class="cls-3" d="M48,106.38c.4-1.42-.32-1.83-1-2a14.07,14.07,0,0,0-1.72-.31,10.8,10.8,0,0,1-1.7-.3c-1.83-.51-2.28-1.93-1.8-3.62l.11-.42,1.1.31-.1.36c-.33,1.17.2,1.75,1.27,2a9.67,9.67,0,0,0,1.46.26,9.74,9.74,0,0,1,1.55.28,2,2,0,0,1,1.75,2h0a2,2,0,0,1,2.58-.83,8.81,8.81,0,0,1,1.47.57,11.5,11.5,0,0,0,1.4.54c1.12.31,1.86,0,2.17-1.09l.1-.36,1.1.3-.12.42c-.46,1.66-1.52,2.69-3.54,2.13a12.43,12.43,0,0,1-1.59-.62,11.08,11.08,0,0,0-1.57-.61c-.61-.17-1.53-.21-1.92,1.2Z" transform="translate(-18.4 -18.08)"/><path class="cls-4" d="M45.9,88.62a13.61,13.61,0,0,0,6.74,5.74,13.91,13.91,0,0,0,8.74.93l-.56,1.31A13.4,13.4,0,0,1,52,95.77a13.65,13.65,0,0,1-6.7-5.84Z" transform="translate(-18.4 -18.08)"/><path class="cls-5" d="M56.48,86l1.14-10.74,1.19.79-1.05,9,0,0,7.84-4.54,1.19.79-9.41,5.31Z" transform="translate(-18.4 -18.08)"/><path class="cls-5" d="M70.7,77.91,63.86,63.36l1-1,6.83,14.56Z" transform="translate(-18.4 -18.08)"/><path class="cls-5" d="M83.76,59.09l-4.9,9.62L78,67.55l4.24-8.06,0,0-9,1.48-.84-1.16,10.67-1.62Z" transform="translate(-18.4 -18.08)"/><path class="cls-4" d="M92.62,62.65a14,14,0,0,0-1.35-8.76,13.71,13.71,0,0,0-6-6.42l1.27-.62a13.21,13.21,0,0,1,6.12,6.4A13.47,13.47,0,0,1,93.89,62Z" transform="translate(-18.4 -18.08)"/><path class="cls-3" d="M103.43,49.71c-1.39.46-1.31,1.37-1.11,2a11.09,11.09,0,0,0,.68,1.54,10.75,10.75,0,0,1,.69,1.56c.66,2-.35,3.1-2,3.63l-.41.14L101,57.48l.34-.11a1.53,1.53,0,0,0,1-2.23,11.64,11.64,0,0,0-.6-1.37,8.27,8.27,0,0,1-.65-1.44,2,2,0,0,1,.71-2.61v0A2,2,0,0,1,99.63,48a9.8,9.8,0,0,1-.34-1.55A11.16,11.16,0,0,0,99,45c-.35-1.06-1-1.53-2.11-1.17l-.35.11-.36-1.08.4-.13c1.66-.55,3.12-.18,3.71,1.63a12,12,0,0,1,.38,1.68,13.55,13.55,0,0,0,.39,1.7c.23.69.68,1.39,2.07.93Z" transform="translate(-18.4 -18.08)"/><path class="cls-6" d="M111,39l3,16.23-3.72.7-.21-1.12,2.34-.44-2.63-14-2.34.44-.21-1.12Z" transform="translate(-18.4 -18.08)"/><circle class="cls-7" cx="126.43" cy="119.52" r="10"/><circle class="cls-8" cx="126.43" cy="96.32" r="10"/><circle class="cls-9" cx="150.46" cy="96.32" r="10"/><circle class="cls-10" cx="150.46" cy="119.52" r="10"/></svg>